<svg xmlns="http://www.w3.org/2000/svg" width="488" height="425" fill="none"><g clip-path="url(#a)"><path fill="#FFE55C" d="m488 365.513-38.43 24.4-4.941 3.111-43.066 27.389-6.161 3.904-.366.244H95.16l-.122-.061-4.758-2.989L0 365.513l44.103-31.293 10.98-7.747 37.698-26.779 6.527-4.636 23.241-16.47 63.745 29.28 5.246 2.44.61.244 22.387.061h6.039l157.441.244h5.612l26.169.061h.183l5.856-3.111 20.923-11.285 6.222-3.355 27.206-14.579 6.527 32.086 1.159 5.49z"/><path fill="#FFC419" d="M191.54 310.308 95.038 424.5l-4.758-2.989 96.014-113.643zm218.258.61-14.396 113.399 6.161-3.904 14.274-112.606-5.856 3.111zM192.76 384.911c-5.795 4.697-13.176 8.601-21.96 11.712a2.8 2.8 0 0 0-1.773 3.09 2.806 2.806 0 0 0 2.688 2.339c.334.005.666-.057.976-.183 9.333-3.294 17.263-7.564 23.546-12.566a2.75 2.75 0 0 0 1.036-1.862 2.75 2.75 0 0 0-.609-2.042 2.806 2.806 0 0 0-3.904-.488m-46.604 17.507a142 142 0 0 1-19.032 1.281c-2.074.061-4.209-.061-6.283-.122a2.75 2.75 0 0 0-2.668 1.566 2.81 2.81 0 0 0 2.424 3.985c2.074.122 4.27.122 6.344.122h.183c6.631.009 13.255-.44 19.825-1.342a2.775 2.775 0 0 0-.793-5.49m92.842-40.626c-9.516.854-18.788 3.05-25.986 6.283a2.806 2.806 0 0 0 1.159 5.368 4 4 0 0 0 1.159-.244c6.649-2.989 15.189-5.063 24.156-5.856a2.865 2.865 0 0 0 2.562-3.05 2.806 2.806 0 0 0-3.05-2.501M95.16 405.041a2.807 2.807 0 0 0 .793-5.49c-9.699-2.989-16.47-7.32-19.581-12.627a2.761 2.761 0 0 0-4.758 2.806c3.782 6.527 11.651 11.773 22.753 15.189zM76.189 366.55c.458.283.987.431 1.525.427a2.63 2.63 0 0 0 2.318-1.281c6.466-9.943 9.638-17.812 9.638-24.217 0-.427-.061-.854-.061-1.281a2.805 2.805 0 1 0-5.551.366v.915c0 5.185-2.928 12.322-8.662 21.228a2.743 2.743 0 0 0 .793 3.843m-9.333-40.931h-.366c-3.817.03-7.628.316-11.407.854l-10.98 7.747c4.148-1.037 13.603-3.05 22.387-3.05h.366a2.81 2.81 0 0 0 2.393-2.776 2.805 2.805 0 0 0-2.393-2.775m198.738 37.576a2.87 2.87 0 0 0-3.294 2.135 2.807 2.807 0 0 0 2.135 3.294c9.089 1.952 16.531 5.368 22.082 10.126a2.93 2.93 0 0 0 1.83.671 2.68 2.68 0 0 0 2.135-.976 2.806 2.806 0 0 0-.305-3.904c-6.283-5.429-14.579-9.211-24.583-11.346m34.221 33.001a2.75 2.75 0 0 0-2.317 2.03c-.092.352-.113.72-.062 1.081.196 1.762.298 3.534.305 5.307 0 5.734-1.098 12.139-3.233 19.032-.119.29-.181.601-.183.915h5.734a70.3 70.3 0 0 0 3.233-19.947 47 47 0 0 0-.366-5.978 2.807 2.807 0 0 0-3.111-2.44m99.064-40.565a2.807 2.807 0 0 0-3.599-1.586c-5.002 1.891-10.553 4.148-16.47 6.649-2.44 1.098-5.002 2.074-7.503 2.928a2.8 2.8 0 0 0-1.773 3.09 2.806 2.806 0 0 0 2.688 2.339c.314-.002.625-.064.915-.183a123 123 0 0 0 7.869-3.05 462 462 0 0 1 16.287-6.588 2.807 2.807 0 0 0 1.586-3.599m-42.639-19.215c-6.71 2.013-14.884 2.867-24.705 2.501a2.87 2.87 0 0 0-2.928 2.684 2.803 2.803 0 0 0 2.684 2.867l4.697.122c8.296 0 15.677-.976 21.899-2.867a2.81 2.81 0 0 0 1.481-3.369 2.804 2.804 0 0 0-3.128-1.938m89.121 18.971a2.8 2.8 0 0 0 1.708-.61 2.865 2.865 0 0 0 .488-3.904c-4.697-6.1-13.237-7.564-27.145-4.636a2.75 2.75 0 0 0-1.761 1.198 2.75 2.75 0 0 0-.374 2.096 2.686 2.686 0 0 0 3.294 2.135c11.285-2.379 18.361-1.525 21.533 2.623.265.346.607.625.999.815.392.191.822.288 1.258.283m2.135 19.642a2.75 2.75 0 0 0-3.233 2.196l-.244 1.098a36.6 36.6 0 0 0-.61 6.283 28.7 28.7 0 0 0 1.22 8.418l4.941-3.111a24.4 24.4 0 0 1-.61-5.307 25 25 0 0 1 .549-5.185l.244-1.098a2.864 2.864 0 0 0-2.257-3.294m-71.675-48.678c.424.187.879.291 1.342.305a2.8 2.8 0 0 0 2.44-1.464 34.6 34.6 0 0 0 4.026-14.335h-5.612a29.35 29.35 0 0 1-3.294 11.712 2.81 2.81 0 0 0 1.098 3.782m-70.638 11.834c-12.871 1.83-14.213 8.54-14.213 11.346s1.83 7.076 5.307 10.553a2.8 2.8 0 0 0 2.013.793 2.63 2.63 0 0 0 1.952-.854 2.746 2.746 0 0 0 0-3.904c-2.379-2.379-3.721-4.697-3.721-6.588 0-4.026 6.588-5.429 9.455-5.856a2.806 2.806 0 0 0 2.379-3.172 2.75 2.75 0 0 0-2.085-2.282 2.8 2.8 0 0 0-1.087-.036m41.541 30.561a79.6 79.6 0 0 1-24.888-1.891 2.75 2.75 0 0 0-2.899 1.032c-.215.294-.37.627-.456.981a2.804 2.804 0 0 0 2.013 3.416 84.4 84.4 0 0 0 19.825 2.257c2.257 0 4.575-.061 6.832-.244a2.805 2.805 0 0 0 2.562-2.989 2.746 2.746 0 0 0-2.989-2.562m-217.648-56.181a81 81 0 0 1 8.418 6.039 295 295 0 0 0 12.078 9.455 2.87 2.87 0 0 0 1.647.488 2.803 2.803 0 0 0 2.257-1.098 2.743 2.743 0 0 0-.61-3.904c-3.721-2.745-7.686-5.856-11.834-9.211a83.5 83.5 0 0 0-8.967-6.466 2.685 2.685 0 0 0-3.843.854 2.806 2.806 0 0 0 .854 3.843M106.933 302.5a2.746 2.746 0 0 0 .793-5.429q-4.454-1.281-8.418-2.013l-6.527 4.636a87.6 87.6 0 0 1 13.42 2.745zm106.201 22.326a2.745 2.745 0 0 0 2.562-1.769c.732-1.83 1.464-3.599 2.135-5.49s1.769-4.636 2.745-6.954h-6.039l-1.891 5.002c-.732 1.769-1.403 3.599-2.135 5.368a2.744 2.744 0 0 0 1.586 3.599c.318.173.676.257 1.037.244m-16.165 15.006c-5.551 2.501-12.993 1.464-22.509-2.989a2.806 2.806 0 1 0-2.379 5.063c6.954 3.233 12.871 4.819 18.178 4.819a21.9 21.9 0 0 0 9.028-1.83 2.867 2.867 0 0 0 1.403-3.721 2.803 2.803 0 0 0-3.721-1.342m279.746-29.158c-7.442 2.44-13.847 3.782-19.032 3.965a2.808 2.808 0 0 0-1.614 4.647c.452.5 1.068.821 1.736.904h.122c5.49-.183 12.2-1.586 19.947-4.026zm-37.332-4.087h.244a2.81 2.81 0 0 0 2.501-3.05c-.061-.732-.061-1.525-.061-2.257a41 41 0 0 1 .915-8.113l-6.222 3.355a42 42 0 0 0-.305 4.758c0 .915.061 1.83.122 2.806a2.866 2.866 0 0 0 2.806 2.501"/><path fill="url(#b)" d="m277.794 233.753-18.666 71.431a8.11 8.11 0 0 1-5.246 5.551c-9.211 3.05-30.012 10.675-22.936 14.945 9.028 5.368 34.282-2.501 37.881-9.028 4.514-8.113 29.524-84.058 29.524-84.058z"/><path fill="url(#c)" d="m327.753 233.997 23.119 88.328a9.94 9.94 0 0 0 6.466 6.893c11.346 3.782 37.088 13.176 28.365 18.422-11.163 6.71-42.334-3.111-46.787-11.102-5.612-10.065-36.539-103.944-36.539-103.944z"/><path fill="#CF1581" d="M272.792 252.846c1.281 4.575 10.187 6.832 17.446 4.026l8.052-24.034-20.557 1.159zm60.39 1.891-5.429-20.74-25.376-1.403s3.416 10.431 8.174 24.644c5.856 4.636 19.215.183 22.631-2.501"/><path fill="#3442D7" d="M126.697 65.759s27.694 11.895 50.874 2.379c6.344-2.562 11.773 5.185 7.198 10.187s-12.627 10.126-24.034 10.858z"/><path fill="url(#d)" d="M221.674 74.603c-22.265 8.967-62.525 15.19-84.424-3.233C94.916 35.685 14.396 59.414 22.265 128.161s92.659 63.501 92.659 63.501l46.787-44.53c-24.461 4.453-69.48-47.336-15.555-35.685 52.521 11.407 74.725-10.309 83.936-27.51 2.989-5.552-2.623-11.652-8.418-9.334"/><path fill="#5865F0" d="M67.161 120.475s9.699-15.677 33.428-6.649c28.548 10.858 48.434 5.734 60.939-1.769 5.002-2.928 2.684-10.553-3.111-10.309-10.126.305-23.363-2.684-37.82-14.7-14.457-12.018-27.633-11.53-37.637-8.602"/><path fill="#0C1AAB" d="M67.161 123.282a2.93 2.93 0 0 1-1.464-.427 2.81 2.81 0 0 1-.915-3.843 24.2 24.2 0 0 1 8.906-7.747c5.429-2.806 14.64-5.124 27.877-.061 28.304 10.736 47.458 5.124 58.56-1.525a2.62 2.62 0 0 0 1.22-3.172 2.8 2.8 0 0 0-2.806-2.013c-13.603.488-26.962-4.698-39.711-15.311-10.797-8.968-22.631-11.713-35.075-8.053a2.806 2.806 0 0 1-1.586-5.367c14.152-4.148 28.06-.977 40.26 9.15 12.2 10.126 23.729 14.457 35.929 14.03a8.356 8.356 0 0 1 4.636 15.494c-12.2 7.259-33.062 13.542-63.44 1.952-21.106-7.991-29.707 5.002-30.073 5.551a2.69 2.69 0 0 1-2.318 1.342"/><path fill="#FF78B7" d="M129.015 171.105c-.488 1.708-.732 2.745-.732 2.745-37.881 28.975-2.196 80.215-2.196 80.215 7.015-8.357 15.555-16.348 26.047-22.326 5.795-50.996-10.065-60.695-23.119-60.634"/><path fill="url(#e)" d="M417.972.061c-32.452 1.281-44.53 31.172-37.881 53.437 7.015 23.301 17.446 35.075 19.52 47.091 2.074 12.017-6.222 23.241-18.117 23.851-19.703.976-49.349-18.971-77.165-15.189-41.175 5.551-28.975 33.428-95.77 22.265-60.817-10.126-76.433 28.731-79.544 39.589 13.054-.061 28.914 9.638 23.119 60.634 22.875-13.115 55.144-16.897 100.955 4.514 66.856 31.171 129.259-22.265 129.259-22.265l18.91-56.852s82.899-25.498 66.856-113.642C463.661 18.972 445.849-1.099 417.972.06"/><path fill="#5865F0" d="M441.518 163.725a7.136 7.136 0 0 0-7.32-11.346c-16.897 4.27-45.933 6.893-76.372-11.956-46.787-28.975-98.881 7.442-86.925 51.24 13.42 49.044 102.541 69.113 131.516 15.616 0 0 24.461-6.71 22.265-31.171a40.6 40.6 0 0 0 16.836-12.383"/><path fill="#fff" d="M185.257 206.181c6.805 0 12.322-8.74 12.322-19.52 0-10.781-5.517-19.52-12.322-19.52s-12.322 8.739-12.322 19.52 5.517 19.52 12.322 19.52"/><path fill="#000" d="M184.952 181.476c-5.063 0-9.211 6.527-9.211 14.518.006 1.246.107 2.49.305 3.721 2.318 3.965 5.551 6.466 9.211 6.466s6.161-2.013 8.357-5.246c.376-1.62.561-3.279.549-4.941 0-7.991-4.087-14.518-9.211-14.518"/><path fill="#CF1581" d="M141.703 158.234c-20.069-4.453-22.326 24.522-22.326 24.522s11.163-17.812 24.583.61c3.965 5.368 4.88 12.383 5.429 19.093.671 8.052.915 20.618-2.135 32.269a114 114 0 0 1 6.466-3.904c6.405-23.363 12.139-67.161-12.017-72.59"/><path fill="#0C1AAB" d="M424.682 182.024a86.9 86.9 0 0 1-24.949 3.66c-2.44 0-3.965-.122-4.209-.122a2.746 2.746 0 0 1-2.562-2.989 2.67 2.67 0 0 1 .935-1.933 2.68 2.68 0 0 1 2.054-.629c.183 0 14.457.976 28.731-3.843a31.3 31.3 0 0 1 0 5.856m-82.228 22.814a2.809 2.809 0 0 0-3.304 4c.349.657.945 1.15 1.657 1.368 9.516 2.928 23.119 6.1 37.759 6.1a88.8 88.8 0 0 0 19.459-2.074 67 67 0 0 0 4.392-6.954l2.074-.732c-22.448 7.93-47.275 2.867-62.037-1.708"/><path fill="#FFE55C" d="M65.819 271.878a11.7 11.7 0 0 1-3.538-3.599 11.9 11.9 0 0 1-1.77-4.697l-.914-5.795a.55.55 0 0 0-.183-.366l-.366-.122-.366.122a.55.55 0 0 0-.183.366l-.915 5.795a11.9 11.9 0 0 1-1.769 4.697 12.45 12.45 0 0 1-3.538 3.599l-.793.488c-.061 0-.122.122-.183.183a.43.43 0 0 0-.061.305.37.37 0 0 0 .061.244c.061.061.122.183.183.183l.793.488a12.4 12.4 0 0 1 3.538 3.599 11.9 11.9 0 0 1 1.769 4.697l.915 5.795a.55.55 0 0 0 .183.366l.366.122.366-.122a.55.55 0 0 0 .183-.366l.915-5.795a11.9 11.9 0 0 1 1.769-4.697 11.7 11.7 0 0 1 3.538-3.599l.793-.488c.06 0 .122-.122.183-.183a.37.37 0 0 0 .061-.244.43.43 0 0 0-.061-.305c-.061-.061-.122-.183-.183-.183z"/><path fill="#FF78B7" d="M41.724 243.269a18.1 18.1 0 0 1-5.612-5.551 19.65 19.65 0 0 1-2.745-7.381l-1.342-9.028a1.6 1.6 0 0 0-.305-.549 1.1 1.1 0 0 0-.61-.244 1.3 1.3 0 0 0-.61.244.9.9 0 0 0-.244.549l-1.403 9.028a19.1 19.1 0 0 1-2.806 7.381 17.9 17.9 0 0 1-5.551 5.551l-1.159.793a.73.73 0 0 0-.305.305.79.79 0 0 0 0 .854l.305.305 1.159.793a17.9 17.9 0 0 1 5.551 5.551 19.1 19.1 0 0 1 2.806 7.381l1.403 9.028a.856.856 0 0 0 .854.732c.218.004.43-.06.61-.183q.187-.256.305-.549l1.342-9.028a20 20 0 0 1 2.745-7.381 18 18 0 0 1 5.612-5.551l1.22-.793a.6.6 0 0 0 .244-.305.8.8 0 0 0 0-.854.6.6 0 0 0-.244-.305z"/><path fill="#8AD7FF" d="M478.484 214.416a19.5 19.5 0 0 1-5.612-5.551 19 19 0 0 1-2.745-7.381l-1.403-9.028a.8.8 0 0 0-.244-.549.85.85 0 0 0-.941-.19.9.9 0 0 0-.279.19.8.8 0 0 0-.244.549l-1.403 9.028a19.1 19.1 0 0 1-2.806 7.381 18.55 18.55 0 0 1-5.551 5.551l-1.159.732-.305.366a.85.85 0 0 0-.122.427c.013.149.054.294.122.427.069.13.175.236.305.305l1.159.793a17.26 17.26 0 0 1 5.551 5.551 18.7 18.7 0 0 1 2.806 7.381l1.403 8.967a.8.8 0 0 0 .244.549.86.86 0 0 0 .61.244.8.8 0 0 0 .61-.244.8.8 0 0 0 .244-.549l1.403-8.967a18.3 18.3 0 0 1 2.745-7.381 18 18 0 0 1 5.612-5.551l1.22-.793.244-.305q.102-.202.122-.427a.85.85 0 0 0-.122-.427l-.244-.366z"/><path fill="#29CA7A" d="M416.142 71.004a2.807 2.807 0 0 1-2.44 3.111h-.366a2.747 2.747 0 0 1-2.745-2.44c-3.904-32.269-17.507-45.018-27.694-50.02a40 40 0 0 1 2.684-4.636c11.59 5.856 26.474 20.008 30.561 53.985M433.466 1.83A43 43 0 0 0 426.39.366c8.967 15.738 22.753 48.617 8.845 85.583a2.8 2.8 0 0 0 1.326 3.46c.4.21.845.321 1.297.322a2.75 2.75 0 0 0 2.623-1.83c13.481-35.929 2.257-68.259-7.015-86.07"/></g><defs><linearGradient id="b" x1="249.057" x2="272.53" y1="323.514" y2="251.662" gradientUnits="userSpaceOnUse"><stop offset=".18" stop-color="#FF78B7"/><stop offset=".97" stop-color="#F25AA8"/></linearGradient><linearGradient id="c" x1="356.441" x2="335.384" y1="332.988" y2="252.132" gradientUnits="userSpaceOnUse"><stop offset=".26" stop-color="#FF78B7"/><stop offset=".51" stop-color="#F96BB0"/><stop offset=".97" stop-color="#EB4A9F"/><stop offset="1" stop-color="#EA489E"/></linearGradient><linearGradient id="d" x1="128.789" x2="141.27" y1="117.041" y2="188.204" gradientUnits="userSpaceOnUse"><stop offset=".15" stop-color="#5865F0"/><stop offset=".89" stop-color="#3442D7"/></linearGradient><linearGradient id="e" x1="295.033" x2="324.41" y1="88.451" y2="245.068" gradientUnits="userSpaceOnUse"><stop offset=".42" stop-color="#8FFFAB"/><stop offset=".92" stop-color="#58F086"/></linearGradient><clipPath id="a"><path fill="#fff" d="M0 0h488v424.56H0z"/></clipPath></defs></svg>